<svg xmlns="http://www.w3.org/2000/svg" viewBox="0 0 29 44" width="100%" height="100%">
  <!-- Path 1 (Bright gold: #ffd42f) -->
  <path d="M23.4526 5.73715C23.3796 6.08418 23.3813 6.25121 23.3116 6.38418C22.4269 8.07553 22.3588 9.91445 22.3767 11.7566C22.4285 17.322 22.516 22.8858 22.5581 28.4512C22.5695 29.8507 22.1984 31.182 21.4725 32.3901C20.2848 34.3669 18.4911 35.4582 16.2697 35.9058C15.9537 35.969 15.6361 36.0307 15.3202 36.0955C15.2959 36.1004 15.2732 36.1215 15.2051 36.1604C15.2051 37.1544 15.2051 38.1761 15.2051 39.1977C15.2035 40.3036 15.2521 41.4161 15.1597 42.5139C15.1322 42.8334 14.9329 43.3393 14.6477 43.3782C14.0855 43.4544 13.8295 42.9144 13.8295 42.4555C13.8327 40.6458 13.8295 38.8344 13.8262 37.0247C13.8262 37.328 13.8262 36.4409 13.8262 36.2107C12.807 35.922 11.8365 35.7599 10.9615 35.3772C8.3479 34.2323 6.77133 32.1809 6.56231 29.348C6.35815 26.5799 6.43268 23.789 6.4424 21.008C6.45374 17.4696 6.59309 13.9312 6.52666 10.3944C6.49911 8.91391 6.08593 7.44148 5.84126 5.93337C6.46833 6.14256 7.03382 6.62904 7.28821 7.28418C7.622 8.14688 7.92824 9.0858 7.94282 9.99553C8.00764 14.2636 7.97685 18.5334 7.95416 22.8031C7.95092 23.3301 8.09675 23.6317 8.57475 23.8815C9.73976 24.4912 10.5159 25.4188 10.6407 26.7842C10.6633 27.0388 10.6164 27.2982 10.5872 27.7896C9.86615 26.6982 9.17913 25.8923 8.06597 25.4999C8.06597 27.0031 7.86667 28.4528 8.10648 29.8263C8.64604 32.9123 11.83 34.9312 15.231 34.5436C18.24 34.1999 20.5392 32.3707 20.8908 29.8199C21.0755 28.4788 20.9232 27.0923 20.9232 25.4917C20.3675 25.8744 19.9446 26.129 19.5638 26.4355C19.1749 26.7501 18.8282 27.115 18.4652 27.4572C18.1995 26.1696 18.9076 24.6631 20.2411 23.9999C20.8714 23.6869 20.9573 23.3123 20.954 22.6896C20.9346 18.3128 20.92 13.9344 20.9897 9.55931C21.0156 7.92796 21.7739 6.62094 23.459 5.7404L23.4526 5.73715Z" fill="#ffd42f"/>
  <!-- Path 2 -->
  <path d="M10.7315 4.34927C11.5173 4.98008 12.1266 5.87035 12.0861 7.00062C12.0342 8.4017 12.3729 9.54332 13.4682 10.4871C13.896 10.8552 14.1147 11.4666 14.3902 11.9044C15.1501 11.0093 16.0089 10.1255 16.6975 9.12494C16.9616 8.74224 16.9049 8.08873 16.8774 7.56494C16.8287 6.59846 17.0783 5.74548 17.6746 4.99954C17.8674 4.75792 18.1299 4.57143 18.4653 4.26332C18.5025 4.49683 18.5301 4.58765 18.5301 4.67683C18.4912 8.21035 18.4604 11.7455 18.4021 15.279C18.3762 16.8147 18.3308 18.352 18.2255 19.8844C18.1574 20.8606 17.6584 21.6585 16.9665 22.3558C16.0672 23.2606 15.2084 24.2044 14.3108 25.1547C14.1892 23.992 13.1506 23.4033 12.253 22.6979C11.0993 21.7931 10.7979 20.4941 10.7639 19.1595C10.6958 16.4903 10.738 13.8179 10.7347 11.1471C10.7347 8.88819 10.7347 6.62927 10.7347 4.34927H10.7315ZM14.5068 22.9525C14.8438 21.7509 15.539 20.9028 16.5306 20.2525C16.7121 20.1325 16.8676 19.826 16.8693 19.6022C16.8936 16.9833 16.8887 14.3644 16.879 11.7455C16.879 11.6093 16.7704 11.4747 16.6473 11.1876C15.782 12.6017 15.0513 13.8374 15.1744 15.399C15.2084 15.8433 15.1371 16.3168 15.0043 16.7433C14.9411 16.9476 14.6235 17.1909 14.4161 17.1958C14.2654 17.199 14.0078 16.8601 13.9689 16.6428C13.87 16.0898 13.8684 15.519 13.8247 14.9547C13.721 13.612 13.3224 12.4071 12.2108 11.3936C12.1655 11.6239 12.1266 11.7228 12.1266 11.8233C12.1233 14.3887 12.112 16.9541 12.1428 19.5179C12.146 19.7887 12.355 20.1228 12.5689 20.3158C13.3888 21.0585 14.2281 21.7703 14.5052 22.9525H14.5068Z" fill="#ffd42f"/>
  <!-- Path 3 -->
  <path d="M28.9973 23.3221C28.8596 27.2578 27.5082 31.2113 24.0942 34.2745C23.7572 34.5761 23.3667 34.834 22.9616 35.0351C22.7947 35.1194 22.4269 35.0788 22.3313 34.9556C22.2243 34.8161 22.2584 34.4918 22.3442 34.2988C22.4366 34.0896 22.6456 33.9242 22.8271 33.7653C27.5131 29.6756 29.1285 23.0772 26.792 17.3318C26.3999 16.3653 25.7907 15.4864 25.2786 14.5702C25.0567 14.1745 24.8233 13.6994 25.3548 13.4756C25.5703 13.3848 26.092 13.6978 26.2962 13.9637C28.0073 16.1918 29.0135 19.5534 28.9957 23.3205L28.9973 23.3221Z" fill="#ffd42f"/>
  <!-- Path 4 -->
  <path d="M0 22.4157C0.00972194 19.9216 0.695119 17.1243 2.27817 14.5768C2.49044 14.2362 2.74321 13.9119 3.03162 13.6346C3.15315 13.5162 3.50476 13.4449 3.58902 13.5243C3.72998 13.6573 3.82558 13.946 3.7867 14.1373C3.72998 14.4162 3.55661 14.6806 3.39782 14.9287C0.281936 19.8097 0.435867 26.6092 3.84179 31.2811C4.54987 32.2524 5.48966 33.0551 6.3144 33.9438C6.5931 34.2454 7.10998 34.586 6.65953 34.993C6.47643 35.16 5.8121 35.0206 5.52368 34.8081C3.63276 33.42 2.28142 31.586 1.34487 29.4422C0.435867 27.3584 0.0113423 25.1724 0 22.4157Z" fill="#ffd42f"/>
  <!-- Path 5 (Blue wheat path fill="#3D87F6") -->
  <path d="M11.1186 28.8972C12.6692 29.6172 13.946 30.3924 14.4175 32.2832C15.0884 30.5334 16.276 29.5994 17.7295 28.9313C18.0373 29.9659 17.467 31.4642 16.5402 32.2361C15.811 32.8442 15.1159 33.4929 14.471 34.0653C13.7905 33.441 12.9933 32.7194 12.2058 31.9864C11.3357 31.1788 11.0554 30.1653 11.1169 28.8972H11.1186Z" fill="#3D87F6"/>
  <!-- Path 6 (Yellow wheat path fill="#FFD42F") -->
  <path d="M11.1915 24.305C12.7259 25.0234 14.1048 25.7709 14.4985 27.5774C14.902 25.8034 16.1448 24.9796 17.6971 24.352C17.8348 25.8001 17.279 26.8201 16.2712 27.678C14.9636 28.7904 14.9312 28.878 14.5342 30.1412C14.4192 29.932 14.356 29.7731 14.2539 29.6434C13.7986 29.0693 13.4081 28.4126 12.8555 27.952C11.6824 26.9726 11.1607 25.9931 11.1898 24.305H11.1915Z" fill="#FFD42F"/>
  <!-- Path 7 -->
  <path d="M14.5044 0C15.0888 0.761354 15.2293 1.64205 15.2309 2.52276C15.2357 4.05095 15.1494 5.57914 15.1127 7.10734C15.1031 7.49419 15.2229 7.90162 15.1191 8.26514C15.0185 8.61496 14.7056 8.9195 14.4869 9.24324C14.2649 8.94693 13.8594 8.65611 13.8482 8.35568C13.778 6.30483 13.7476 4.24986 13.7971 2.19901C13.8147 1.46372 14.0909 0.733917 14.249 0.00137181C14.3336 0.00137181 14.4182 0.00137181 14.5028 0.00137181L14.5044 0Z" fill="#ffd42f"/>
</svg>
